<?xml version="1.0" encoding="UTF-8" standalone="no"?>
<svg
   viewBox="7 164 469.21771 190.35262"
   version="1.1"
   id="svg73"
   width="469.21771"
   height="190.35262"
   xmlns="http://www.w3.org/2000/svg">
  <defs
     id="defs51">
    <linearGradient
       gradientUnits="userSpaceOnUse"
       x1="199.62"
       y1="275.99399"
       x2="199.62"
       y2="313.487"
       id="gradient-2"
       gradientTransform="matrix(0.300879,0,0,-0.300879,70.967078,399.35311)">
      <stop
         offset="0"
         style="stop-color: rgb(126, 151, 46)"
         id="stop1" />
      <stop
         offset="1"
         style="stop-color: rgb(65, 91, 0)"
         id="stop2" />
    </linearGradient>
    <linearGradient
       gradientUnits="userSpaceOnUse"
       x1="239.539"
       y1="267.901"
       x2="239.539"
       y2="272.46799"
       id="gradient-86"
       gradientTransform="matrix(0.300879,0,0,-0.300879,46.819676,403.3272)">
      <stop
         offset="0"
         style="stop-color: rgb(126, 151, 46)"
         id="stop3" />
      <stop
         offset="1"
         style="stop-color: rgb(65, 91, 0)"
         id="stop4" />
    </linearGradient>
    <linearGradient
       gradientUnits="userSpaceOnUse"
       x1="299.02899"
       y1="307.41199"
       x2="299.02899"
       y2="335.34601"
       id="gradient-87"
       gradientTransform="matrix(0.300879,0,0,-0.300879,39.975211,438.3144)">
      <stop
         offset="0"
         style="stop-color: rgb(126, 151, 46)"
         id="stop5" />
      <stop
         offset="1"
         style="stop-color: rgb(65, 91, 0)"
         id="stop6" />
    </linearGradient>
    <linearGradient
       gradientUnits="userSpaceOnUse"
       x1="296.28299"
       y1="381.207"
       x2="296.28299"
       y2="394.909"
       id="gradient-88"
       gradientTransform="matrix(0.300879,0,0,-0.300879,60.228868,463.45328)">
      <stop
         offset="0"
         style="stop-color: rgb(126, 151, 46)"
         id="stop7" />
      <stop
         offset="1"
         style="stop-color: rgb(65, 91, 0)"
         id="stop8" />
    </linearGradient>
    <linearGradient
       gradientUnits="userSpaceOnUse"
       x1="286.285"
       y1="403.98599"
       x2="286.285"
       y2="427.77701"
       id="gradient-89"
       gradientTransform="matrix(0.300879,0,0,-0.300879,72.121846,471.39624)">
      <stop
         offset="0"
         style="stop-color: rgb(126, 151, 46)"
         id="stop9" />
      <stop
         offset="1"
         style="stop-color: rgb(65, 91, 0)"
         id="stop10" />
    </linearGradient>
    <linearGradient
       gradientUnits="userSpaceOnUse"
       x1="249.425"
       y1="452.15799"
       x2="249.425"
       y2="461.06299"
       id="gradient-90"
       gradientTransform="matrix(0.300879,0,0,-0.300879,100.82401,474.97073)">
      <stop
         offset="0"
         style="stop-color: rgb(126, 151, 46)"
         id="stop11" />
      <stop
         offset="1"
         style="stop-color: rgb(65, 91, 0)"
         id="stop12" />
    </linearGradient>
    <linearGradient
       gradientUnits="userSpaceOnUse"
       x1="288.67999"
       y1="336.04099"
       x2="288.67999"
       y2="346.22"
       id="gradient-91"
       gradientTransform="matrix(0.300879,0,0,-0.300879,49.682401,443.01764)">
      <stop
         offset="0"
         style="stop-color: rgb(126, 151, 46)"
         id="stop13" />
      <stop
         offset="1"
         style="stop-color: rgb(65, 91, 0)"
         id="stop14" />
    </linearGradient>
    <linearGradient
       gradientUnits="userSpaceOnUse"
       x1="290.362"
       y1="372.849"
       x2="290.362"
       y2="380.702"
       id="gradient-92"
       gradientTransform="matrix(0.300879,0,0,-0.300879,59.284775,457.36219)">
      <stop
         offset="0"
         style="stop-color: rgb(126, 151, 46)"
         id="stop15" />
      <stop
         offset="1"
         style="stop-color: rgb(65, 91, 0)"
         id="stop16" />
    </linearGradient>
    <linearGradient
       gradientUnits="userSpaceOnUse"
       x1="245.369"
       y1="289.35999"
       x2="245.369"
       y2="346.66501"
       id="gradient-93"
       gradientTransform="matrix(0.300879,0,0,-0.300879,59.872765,421.56583)">
      <stop
         offset="0"
         style="stop-color: rgb(126, 151, 46)"
         id="stop17" />
      <stop
         offset="1"
         style="stop-color: rgb(65, 91, 0)"
         id="stop18" />
    </linearGradient>
    <linearGradient
       gradientUnits="userSpaceOnUse"
       x1="203.049"
       y1="340.60999"
       x2="203.049"
       y2="348.72101"
       id="gradient-94"
       gradientTransform="matrix(0.300879,0,0,-0.300879,83.99855,419.7539)">
      <stop
         offset="0"
         style="stop-color: rgb(126, 151, 46)"
         id="stop19" />
      <stop
         offset="1"
         style="stop-color: rgb(65, 91, 0)"
         id="stop20" />
    </linearGradient>
    <linearGradient
       gradientUnits="userSpaceOnUse"
       x1="204.575"
       y1="375.70901"
       x2="204.575"
       y2="385.233"
       id="gradient-95"
       gradientTransform="matrix(0.300879,0,0,-0.300879,93.707515,434.11636)">
      <stop
         offset="0"
         style="stop-color: rgb(126, 151, 46)"
         id="stop21" />
      <stop
         offset="1"
         style="stop-color: rgb(65, 91, 0)"
         id="stop22" />
    </linearGradient>
    <linearGradient
       gradientUnits="userSpaceOnUse"
       x1="248.29201"
       y1="374.923"
       x2="248.29201"
       y2="432.095"
       id="gradient-96"
       gradientTransform="matrix(0.300879,0,0,-0.300879,83.336015,455.65354)">
      <stop
         offset="0"
         style="stop-color: rgb(126, 151, 46)"
         id="stop23" />
      <stop
         offset="1"
         style="stop-color: rgb(65, 91, 0)"
         id="stop24" />
    </linearGradient>
    <linearGradient
       gradientUnits="userSpaceOnUse"
       x1="245.675"
       y1="162.127"
       x2="245.675"
       y2="245.983"
       id="gradient-97"
       gradientTransform="matrix(0.300879,0,0,0.300879,171.75744,142.6598)">
      <stop
         offset="0"
         style="stop-color: rgb(126, 151, 46)"
         id="stop25" />
      <stop
         offset="1"
         style="stop-color: rgb(65, 91, 0)"
         id="stop26" />
    </linearGradient>
    <linearGradient
       gradientUnits="userSpaceOnUse"
       x1="245.58099"
       y1="171.946"
       x2="245.58099"
       y2="236.59801"
       id="gradient-98"
       gradientTransform="matrix(0.300879,0,0,0.300879,171.69171,142.81152)">
      <stop
         offset="0"
         style="stop-color: rgb(126, 151, 46)"
         id="stop27" />
      <stop
         offset="1"
         style="stop-color: rgb(65, 91, 0)"
         id="stop28" />
    </linearGradient>
    <linearGradient
       gradientUnits="userSpaceOnUse"
       x1="256.689"
       y1="311.09"
       x2="256.689"
       y2="355.89801"
       id="gradient-99"
       gradientTransform="matrix(0.300879,0,0,-0.300879,59.925766,430.84295)">
      <stop
         offset="0"
         style="stop-color: rgb(126, 151, 46)"
         id="stop29" />
      <stop
         offset="1"
         style="stop-color: rgb(65, 91, 0)"
         id="stop30" />
    </linearGradient>
    <linearGradient
       gradientUnits="userSpaceOnUse"
       x1="219.411"
       y1="341.62"
       x2="219.411"
       y2="360.634"
       id="gradient-100"
       gradientTransform="matrix(0.300879,0,0,-0.300879,79.495404,426.97411)">
      <stop
         offset="0"
         style="stop-color: rgb(126, 151, 46)"
         id="stop31" />
      <stop
         offset="1"
         style="stop-color: rgb(65, 91, 0)"
         id="stop32" />
    </linearGradient>
    <linearGradient
       gradientUnits="userSpaceOnUse"
       x1="237.106"
       y1="365.422"
       x2="237.106"
       y2="410.76001"
       id="gradient-101"
       gradientTransform="matrix(0.300879,0,0,-0.300879,83.24963,446.43951)">
      <stop
         offset="0"
         style="stop-color: rgb(126, 151, 46)"
         id="stop33" />
      <stop
         offset="1"
         style="stop-color: rgb(65, 91, 0)"
         id="stop34" />
    </linearGradient>
    <linearGradient
       gradientUnits="userSpaceOnUse"
       x1="274.16199"
       y1="360.897"
       x2="274.16199"
       y2="379.979"
       id="gradient-102"
       gradientTransform="matrix(0.300879,0,0,-0.300879,63.760644,450.23697)">
      <stop
         offset="0"
         style="stop-color: rgb(126, 151, 46)"
         id="stop35" />
      <stop
         offset="1"
         style="stop-color: rgb(65, 91, 0)"
         id="stop36" />
    </linearGradient>
    <linearGradient
       gradientUnits="userSpaceOnUse"
       x1="180.70599"
       y1="107.963"
       x2="180.70599"
       y2="137.435"
       id="gradient-103"
       gradientTransform="matrix(0.300879,0,0,0.300879,126.33598,85.781805)">
      <stop
         offset="0"
         style="stop-color: rgb(126, 151, 46)"
         id="stop37" />
      <stop
         offset="1"
         style="stop-color: rgb(65, 91, 0)"
         id="stop38" />
    </linearGradient>
    <linearGradient
       gradientUnits="userSpaceOnUse"
       x1="286.405"
       y1="115.407"
       x2="286.405"
       y2="144.879"
       id="gradient-104"
       gradientTransform="matrix(0.300879,0,0,0.300879,200.23268,90.98612)">
      <stop
         offset="0"
         style="stop-color: rgb(126, 151, 46)"
         id="stop39" />
      <stop
         offset="1"
         style="stop-color: rgb(65, 91, 0)"
         id="stop40" />
    </linearGradient>
    <linearGradient
       gradientUnits="userSpaceOnUse"
       x1="344.77499"
       y1="103.54"
       x2="344.77499"
       y2="158.74001"
       id="gradient-105"
       gradientTransform="matrix(0.300879,0,0,0.300879,241.04061,91.683141)">
      <stop
         offset="0"
         style="stop-color: rgb(126, 151, 46)"
         id="stop41" />
      <stop
         offset="1"
         style="stop-color: rgb(65, 91, 0)"
         id="stop42" />
    </linearGradient>
    <linearGradient
       gradientUnits="userSpaceOnUse"
       x1="428.10101"
       y1="164.815"
       x2="428.10101"
       y2="220.015"
       id="gradient-106"
       gradientTransform="matrix(0.216767,0,0,0.216767,335.30443,150.7063)">
      <stop
         offset="0"
         style="stop-color: rgb(126, 151, 46)"
         id="stop43" />
      <stop
         offset="1"
         style="stop-color: rgb(65, 91, 0)"
         id="stop44" />
    </linearGradient>
    <linearGradient
       gradientUnits="userSpaceOnUse"
       x1="132.233"
       y1="270.569"
       x2="132.233"
       y2="300.04099"
       id="gradient-107"
       gradientTransform="matrix(0.300879,0,0,0.300879,92.447354,199.46365)">
      <stop
         offset="0"
         style="stop-color: rgb(126, 151, 46)"
         id="stop45" />
      <stop
         offset="1"
         style="stop-color: rgb(65, 91, 0)"
         id="stop46" />
    </linearGradient>
    <linearGradient
       gradientUnits="userSpaceOnUse"
       x1="74.267998"
       y1="189.321"
       x2="74.267998"
       y2="244.521"
       id="gradient-108"
       gradientTransform="matrix(0.300879,0,0,0.300879,51.922598,151.65473)">
      <stop
         offset="0"
         style="stop-color: rgb(126, 151, 46)"
         id="stop47" />
      <stop
         offset="1"
         style="stop-color: rgb(65, 91, 0)"
         id="stop48" />
    </linearGradient>
    <linearGradient
       gradientUnits="userSpaceOnUse"
       x1="238.70599"
       y1="140.974"
       x2="238.70599"
       y2="171.573"
       id="gradient-4-4"
       href="#gradient-4" />
    <linearGradient
       id="gradient-4">
      <stop
         offset="0"
         style="stop-color: rgb(10, 136, 153);"
         id="stop49" />
      <stop
         offset="1"
         style="stop-color: rgb(0, 37, 44);"
         id="stop50" />
    </linearGradient>
    <radialGradient
       id="gradient-3-4"
       href="#gradient-3"
       gradientUnits="userSpaceOnUse"
       cx="247.172"
       cy="250.89301"
       r="127.112"
       gradientTransform="matrix(0.390486,0,0,0.390486,175.20319,14.398032)" />
    <linearGradient
       id="gradient-3">
      <stop
         offset="0.253"
         style="stop-color: rgb(3, 54, 61);"
         id="stop51" />
    </linearGradient>
  </defs>
  <g
     transform="matrix(4.39834,0,0,4.39834,-455.77334,-485.57178)"
     id="g73">
    <g
       transform="matrix(0.461181,-0.030345,0.031392,0.477096,46.860352,21.02288)"
       id="g71">
      <g
         id="path51"
         transform="rotate(17.003201,131.02751,310.6715)">
        <path
           style="color:#000000;fill:#d8d8d8;-inkscape-stroke:none"
           d="M 139.544,316.312 122.511,305.031"
           id="path74" />
        <path
           style="color:#000000;fill:url(#gradient-2);-inkscape-stroke:none"
           d="m 122.77539,304.63281 -0.5293,0.79688 17.03321,11.28125 0.52929,-0.79883 z"
           id="path75" />
      </g>
      <g
         id="path52"
         transform="rotate(17.003201,126.48549,326.23001)">
        <path
           style="color:#000000;fill:#d8d8d8;-inkscape-stroke:none"
           d="m 131.741,326.002 -10.511,0.456"
           id="path76" />
        <path
           style="color:#000000;fill:url(#gradient-86);-inkscape-stroke:none"
           d="m 131.7207,325.52344 -10.51172,0.45703 0.041,0.95508 10.51172,-0.45508 z"
           id="path77" />
      </g>
      <g
         id="path53"
         transform="rotate(17.003201,129.9455,341.61801)">
        <path
           style="color:#000000;fill:#d8d8d8;-inkscape-stroke:none"
           d="m 133.221,337.416 -6.551,8.404"
           id="path78" />
        <path
           style="color:#000000;fill:url(#gradient-87);-inkscape-stroke:none"
           d="m 132.84375,337.12109 -6.55078,8.4043 0.75391,0.58789 6.55078,-8.40234 z"
           id="path79" />
      </g>
      <g
         id="path54"
         transform="rotate(17.003201,149.37299,346.69351)">
        <path
           style="color:#000000;fill:#d8d8d8;-inkscape-stroke:none"
           d="m 148.127,344.632 2.492,4.123"
           id="path80" />
        <path
           style="color:#000000;fill:url(#gradient-88);-inkscape-stroke:none"
           d="m 148.53711,344.38477 -0.82031,0.49414 2.49218,4.12304 0.82032,-0.49414 z"
           id="path81" />
      </g>
      <g
         id="path55"
         transform="rotate(17.003201,158.25801,346.26602)">
        <path
           style="color:#000000;fill:#d8d8d8;-inkscape-stroke:none"
           d="m 153.496,342.687 9.524,7.158"
           id="path82" />
        <path
           style="color:#000000;fill:url(#gradient-89);-inkscape-stroke:none"
           d="m 153.7832,342.30469 -0.57422,0.76562 9.52344,7.15821 0.57422,-0.76563 z"
           id="path83" />
      </g>
      <g
         id="path56"
         transform="rotate(17.003201,168.99849,329.55101)">
        <path
           style="color:#000000;fill:#d8d8d8;-inkscape-stroke:none"
           d="m 161.154,332.383 15.689,-5.664"
           id="path84" />
        <path
           style="color:#000000;fill:url(#gradient-90);-inkscape-stroke:none"
           d="m 176.67969,326.26953 -15.6875,5.66406 0.32422,0.90039 15.68945,-5.66406 z"
           id="path85" />
      </g>
      <path
         style="color:#000000;fill:url(#gradient-91);-inkscape-stroke:none"
         d="m 133.65625,338.50781 -0.67383,0.67969 c 1.85847,1.83971 4.15231,2.87398 6.7168,3.19727 l 0.12109,-0.94922 c -2.3855,-0.30072 -4.45653,-1.23745 -6.16406,-2.92774 z"
         id="path57"
         transform="rotate(17.003201,136.5395,340.37851)" />
      <path
         style="color:#000000;fill:url(#gradient-92);-inkscape-stroke:none"
         d="m 149.61914,342.44336 c -1.62557,1.3119 -3.71767,2.14884 -6.26367,2.25781 l 0.0391,0.95508 c 2.73399,-0.11702 5.03979,-1.02865 6.82422,-2.46875 z"
         id="path58"
         transform="rotate(17.003201,146.64699,343.99751)" />
      <path
         style="color:#000000;fill:url(#gradient-93);-inkscape-stroke:none"
         d="m 134.85547,316.99414 c -4.02484,5.9822 -4.22708,12.00772 -0.57813,17.76563 l 0.8086,-0.51172 c -3.48304,-5.49609 -3.30671,-10.96497 0.56445,-16.71875 z"
         id="path59"
         transform="rotate(17.003201,133.69777,325.88299)" />
      <path
         style="color:#000000;fill:url(#gradient-94);-inkscape-stroke:none"
         d="m 148.28711,314.35352 c -2.47916,0.20901 -4.73087,1.05773 -6.7168,2.5332 l 0.57031,0.76758 c 1.85007,-1.37453 3.91373,-2.15072 6.22657,-2.34571 z"
         id="path60"
         transform="rotate(17.003201,145.09151,316.051)" />
      <path
         style="color:#000000;fill:url(#gradient-95);-inkscape-stroke:none"
         d="m 152.21484,317.73437 -0.16015,0.94532 c 2.31697,0.38971 4.22162,1.29889 6.02734,2.76367 l 0.60156,-0.74219 c -1.91227,-1.55121 -3.99373,-2.5505 -6.46875,-2.9668 z"
         id="path61"
         transform="rotate(17.003201,155.25899,319.63949)" />
      <path
         style="color:#000000;fill:url(#gradient-96);-inkscape-stroke:none"
         d="m 157.49219,325.39453 -0.81641,0.5 c 3.59017,5.8563 3.3737,11.29828 -0.65234,16.66602 l 0.76562,0.57422 c 4.20795,-5.61026 4.44495,-11.63655 0.70313,-17.74024 z"
         id="path62"
         transform="rotate(17.003201,158.04049,334.24552)" />
      <path
         style="color:#000000;fill:url(#gradient-97);-inkscape-stroke:none"
         d="m 245.67578,190.96094 c -7.22571,0 -13.09375,5.86803 -13.09375,13.09375 0,7.22571 5.86804,13.09375 13.09375,13.09375 7.22572,0 13.09375,-5.86804 13.09375,-13.09375 0,-7.22572 -5.86803,-13.09375 -13.09375,-13.09375 z m 0,0.95703 c 6.70842,0 12.13477,5.4283 12.13477,12.13672 0,6.70841 -5.42635,12.13672 -12.13477,12.13672 -6.70841,0 -12.13672,-5.42831 -12.13672,-12.13672 0,-6.70842 5.42831,-12.13672 12.13672,-12.13672 z"
         id="ellipse62"
         transform="matrix(0.956288,0.292425,0.292425,-0.956288,-148.79908,453.41558)" />
      <path
         style="color:#000000;fill:url(#gradient-98);-inkscape-stroke:none"
         d="m 245.58008,194.06641 c -5.63072,0 -10.20508,4.57436 -10.20508,10.20507 0,5.63072 4.57436,10.20704 10.20508,10.20704 5.63072,0 10.20703,-4.57632 10.20703,-10.20704 0,-5.63071 -4.57631,-10.20507 -10.20703,-10.20507 z m 0,0.95703 c 5.11342,0 9.25,4.13462 9.25,9.24804 0,5.11342 -4.13658,9.24805 -9.25,9.24805 -5.11342,0 -9.24805,-4.13463 -9.24805,-9.24805 0,-5.11342 4.13463,-9.24804 9.24805,-9.24804 z"
         id="ellipse63"
         transform="matrix(0.956288,0.292425,0.292425,-0.956288,-148.78011,453.58422)" />
      <path
         style="color:#000000;fill:url(#gradient-99);-inkscape-stroke:none"
         d="m 134.2832,323.6582 c -0.67545,3.11107 -0.57447,5.8599 0.33985,8.21289 0.91431,2.353 2.64093,4.28856 5.11914,5.78125 l 0.49414,-0.82031 c -2.33479,-1.40631 -3.88877,-3.1676 -4.72071,-5.30859 -0.83193,-2.141 -0.94342,-4.68419 -0.29687,-7.66211 z"
         id="path63"
         transform="rotate(17.003201,137.15645,330.50099)" />
      <path
         style="color:#000000;fill:url(#gradient-100);-inkscape-stroke:none"
         d="m 148.04102,317.99219 c -1.37471,0.0384 -2.65721,0.28924 -3.84571,0.75 -2.37699,0.92152 -4.351,2.68267 -5.90039,5.19336 l 0.81445,0.50195 c 1.46461,-2.37331 3.27015,-3.96476 5.43165,-4.80273 2.16149,-0.83798 4.70208,-0.92678 7.6621,-0.19532 l 0.23047,-0.92968 c -1.55098,-0.38327 -3.01787,-0.55599 -4.39257,-0.51758 z"
         id="path64"
         transform="rotate(17.003201,145.5105,321.32631)" />
      <path
         style="color:#000000;fill:url(#gradient-101);-inkscape-stroke:none"
         d="m 151.99219,322.44531 -0.51172,0.8086 c 2.47807,1.56681 4.08647,3.42517 4.88672,5.58593 0.80024,2.16076 0.80171,4.65143 -0.0371,7.51758 l 0.91797,0.26758 c 0.88117,-3.01084 0.90133,-5.73291 0.0176,-8.11914 -0.88375,-2.38624 -2.66351,-4.41036 -5.27343,-6.06055 z"
         id="path65"
         transform="rotate(17.003201,154.58891,329.6705)" />
      <path
         style="color:#000000;fill:url(#gradient-102);-inkscape-stroke:none"
         d="m 152.68945,335.6582 c -1.52248,2.47569 -3.36969,4.09737 -5.54297,4.90821 -2.17328,0.81083 -4.69954,0.81886 -7.60937,-0.0371 l -0.26953,0.91797 c 3.05616,0.89902 5.81292,0.91103 8.21289,0.0156 2.39996,-0.89541 4.41693,-2.69042 6.02344,-5.30273 z"
         id="path66"
         transform="rotate(17.003201,146.24999,338.77968)" />
      <path
         style="color:#000000;fill:url(#gradient-103);-inkscape-stroke:none"
         d="m 180.70508,117.78711 c -2.70748,0 -4.91211,2.20463 -4.91211,4.91211 0,2.70748 2.20463,4.91211 4.91211,4.91211 2.70748,0 4.91406,-2.20463 4.91406,-4.91211 0,-2.70748 -2.20658,-4.91211 -4.91406,-4.91211 z m 0,0.95703 c 2.19018,0 3.95703,1.7649 3.95703,3.95508 0,2.19018 -1.76685,3.95508 -3.95703,3.95508 -2.19018,0 -3.95508,-1.7649 -3.95508,-3.95508 0,-2.19018 1.7649,-3.95508 3.95508,-3.95508 z"
         id="ellipse66"
         transform="matrix(0.956288,0.292425,0.292425,-0.956288,-87.137485,411.21586)" />
      <path
         style="color:#000000;fill:url(#gradient-104);-inkscape-stroke:none"
         d="m 286.4043,125.23047 c -2.70748,0 -4.91211,2.20463 -4.91211,4.91211 0,2.70748 2.20463,4.91211 4.91211,4.91211 2.70747,0 4.91406,-2.20463 4.91406,-4.91211 0,-2.70748 -2.20659,-4.91211 -4.91406,-4.91211 z m 0,0.95703 c 2.19018,0 3.95703,1.7649 3.95703,3.95508 0,2.19018 -1.76685,3.95508 -3.95703,3.95508 -2.19018,0 -3.95508,-1.7649 -3.95508,-3.95508 0,-2.19018 1.7649,-3.95508 3.95508,-3.95508 z"
         id="ellipse67"
         transform="matrix(0.956288,0.292425,0.292425,-0.956288,-161.24045,394.14236)" />
      <path
         style="color:#000000;fill:url(#gradient-105);-inkscape-stroke:none"
         d="m 344.77539,122.35742 c -4.84482,0 -8.7832,3.93839 -8.7832,8.7832 0,4.84482 3.93838,8.78125 8.7832,8.78125 4.84482,0 8.78125,-3.93643 8.78125,-8.78125 0,-4.84481 -3.93643,-8.7832 -8.78125,-8.7832 z m 0,0.95703 c 4.32752,0 7.82422,3.49866 7.82422,7.82617 0,4.32752 -3.4967,7.82422 -7.82422,7.82422 -4.32752,0 -7.82617,-3.4967 -7.82617,-7.82422 0,-4.32751 3.49865,-7.82617 7.82617,-7.82617 z"
         id="ellipse68"
         transform="matrix(0.956288,0.292425,0.292425,-0.956288,-201.50875,382.57686)" />
      <path
         style="color:#000000;fill:url(#gradient-106);-inkscape-stroke:none"
         d="m 428.10156,185.95312 c -3.56296,0 -6.46289,2.89798 -6.46289,6.46094 0,3.56297 2.89993,6.46289 6.46289,6.46289 3.56297,0 6.46094,-2.89992 6.46094,-6.46289 0,-3.56296 -2.89797,-6.46093 -6.46094,-6.46094 z m 0,0.95704 c 3.04567,0 5.50391,2.45824 5.50391,5.5039 0,3.04567 -2.45824,5.50586 -5.50391,5.50586 -3.04566,0 -5.50586,-2.46019 -5.50586,-5.50586 0,-3.04566 2.4602,-5.5039 5.50586,-5.5039 z"
         id="ellipse69"
         transform="matrix(0.956288,0.292425,0.292425,-0.956288,-282.72129,387.60426)" />
      <path
         style="color:#000000;fill:url(#gradient-107);-inkscape-stroke:none"
         d="m 132.23242,280.39258 c -2.70748,0 -4.91211,2.20463 -4.91211,4.91211 0,2.70747 2.20463,4.91211 4.91211,4.91211 2.70748,0 4.91406,-2.20464 4.91406,-4.91211 0,-2.70748 -2.20658,-4.91211 -4.91406,-4.91211 z m 0,0.95703 c 2.19018,0 3.95508,1.7649 3.95508,3.95508 0,2.19018 -1.7649,3.95508 -3.95508,3.95508 -2.19018,0 -3.95508,-1.7649 -3.95508,-3.95508 0,-2.19018 1.7649,-3.95508 3.95508,-3.95508 z"
         id="ellipse70"
         transform="matrix(0.956288,0.292425,0.292425,-0.956288,-87.995747,532.9844)" />
      <path
         style="color:#000000;fill:url(#gradient-108);-inkscape-stroke:none"
         d="m 74.267578,208.13867 c -4.844817,0 -8.78125,3.93839 -8.78125,8.7832 0,4.84482 3.936433,8.78126 8.78125,8.78125 4.844817,0 8.783203,-3.93643 8.783203,-8.78125 0,-4.84481 -3.938386,-8.7832 -8.783203,-8.7832 z m 0,0.95703 c 4.327519,0 7.826172,3.49866 7.826172,7.82617 0,4.32752 -3.498653,7.82422 -7.826172,7.82422 -4.327519,0 -7.824219,-3.4967 -7.824219,-7.82422 0,-4.32751 3.4967,-7.82617 7.824219,-7.82617 z"
         id="ellipse71"
         transform="matrix(0.956288,0.292425,0.292425,-0.956288,-21.060482,508.10128)" />
    </g>
    <path
       d="m 211.14536,153.81715 -1.70957,12.07724 q -0.0368,0.3125 -0.18382,0.45956 -0.14706,0.14706 -0.45956,0.14706 h -1.47059 q -0.27574,0 -0.4228,-0.14706 -0.14706,-0.14706 -0.23897,-0.40441 l -3.18015,-8.989 q -0.12868,-0.34926 -0.27574,-0.79044 -0.12868,-0.45956 -0.22059,-0.84559 h -0.3125 q -0.0184,0.40441 -0.0551,0.82721 -0.0368,0.42279 -0.0919,0.84559 l -1.30515,9.5037 h -1.61765 l 1.69118,-12.07724 q 0.0551,-0.3125 0.22059,-0.45956 0.16544,-0.14706 0.45956,-0.14706 h 1.43383 q 0.27573,0 0.42279,0.14706 0.14706,0.14706 0.23897,0.40441 l 3.08825,8.75003 q 0.14706,0.40441 0.29412,0.90073 0.16544,0.47795 0.29411,0.93751 h 0.34927 q 0.0368,-0.47795 0.0735,-0.93751 0.0368,-0.45956 0.11029,-0.91912 l 1.26839,-9.28311 z m 5.40441,-0.0184 q 0.9375,0 1.875,0 0.9375,0 1.83824,0.0368 0.91912,0.0184 1.76471,0.0735 l -0.22059,1.26839 h -5.05516 q -0.625,0 -0.91912,0.29412 -0.29411,0.29412 -0.38603,0.95588 l -1.02941,7.5184 q -0.0919,0.62501 0.14706,0.91912 0.23897,0.27574 0.86397,0.27574 h 4.96325 l -0.0368,1.26839 q -0.80882,0.0551 -1.67279,0.0735 -0.86398,0.0184 -1.74633,0.0184 -0.86398,0.0184 -1.70957,0.0184 -1.39706,0 -2.02206,-0.68015 -0.60662,-0.68015 -0.44118,-1.85662 l 1.12133,-8.01473 q 0.14706,-1.02941 0.80882,-1.59927 0.68015,-0.56985 1.85663,-0.56985 z m -2.77575,5.38604 h 6.74635 l -0.16545,1.25 h -6.76472 z m 11.56255,-5.36766 2.44486,6.2684 -4.2831,6.41546 h -1.87501 l 4.52207,-6.56252 -2.46324,-6.12134 z m 3.45589,5.47796 -0.18383,1.25 h -1.94853 l 0.18382,-1.25 z m 4.74266,-5.47796 -4.22796,6.12134 2.66545,6.56252 h -1.65441 l -2.64707,-6.74634 4.08089,-5.93752 z m 6.36028,-0.23897 q 1.74633,0 2.77575,0.64338 1.04779,0.64339 1.37868,2.0956 0.33088,1.45221 -0.0184,3.89707 -0.23897,1.83824 -0.68015,3.10662 -0.44117,1.25001 -1.12132,2.00368 -0.66177,0.75368 -1.65442,1.08457 -0.97427,0.33088 -2.33456,0.33088 -1.74633,0 -2.79413,-0.625 -1.04779,-0.625 -1.39706,-2.07721 -0.34927,-1.45221 -0.0184,-3.93384 0.25735,-1.80147 0.68015,-3.03309 0.42279,-1.25001 1.10294,-2.02207 0.68015,-0.77206 1.6728,-1.12132 1.01103,-0.34927 2.40809,-0.34927 z m -0.0919,1.45221 q -1.28677,0 -2.09559,0.47794 -0.79045,0.45956 -1.25001,1.59927 -0.45956,1.12133 -0.73529,3.10663 -0.25736,1.93015 -0.12868,3.03309 0.14706,1.10295 0.79044,1.58089 0.64339,0.45956 1.89339,0.45956 1.26839,0 2.05883,-0.47794 0.79044,-0.47795 1.26839,-1.59927 0.47794,-1.13971 0.75367,-3.10663 0.29412,-1.9853 0.14706,-3.08824 -0.14706,-1.10295 -0.80882,-1.54412 -0.64339,-0.44118 -1.89339,-0.44118 z m 12.13239,-1.37868 q 1.32354,0 2.20589,0.33088 0.88236,0.33089 1.26839,1.13971 0.40441,0.80883 0.2022,2.26104 -0.12867,0.95588 -0.45956,1.63603 -0.33088,0.68015 -0.91912,1.06618 -0.56985,0.38603 -1.45221,0.49632 l -0.0184,0.0919 q 0.34927,0.0919 0.60662,0.33088 0.27574,0.23897 0.45956,0.625 0.18383,0.36765 0.27574,0.90074 l 0.80882,3.9706 h -1.65441 l -0.75368,-4.00737 q -0.12868,-0.71691 -0.47794,-0.99265 -0.34927,-0.29411 -0.95589,-0.29411 -1.15809,-0.0184 -1.9853,-0.0184 -0.80882,-0.0184 -1.3603,-0.0184 -0.53309,-0.0184 -0.90073,-0.0184 l 0.2022,-1.34192 h 4.06251 q 0.93751,-0.0184 1.50736,-0.23897 0.58824,-0.22059 0.91912,-0.75368 0.33088,-0.53309 0.45956,-1.48897 0.12868,-0.88236 -0.0184,-1.37868 -0.14706,-0.49633 -0.64339,-0.69853 -0.49632,-0.20221 -1.41544,-0.20221 -1.5625,0 -2.66545,0.0184 -1.08456,0.0184 -1.47059,0.0184 l -0.12868,-1.26839 q 0.69853,-0.0735 1.32353,-0.11029 0.64339,-0.0368 1.34192,-0.0368 0.71691,-0.0184 1.63603,-0.0184 z m -2.72059,0.16544 -1.78309,12.68386 h -1.58089 l 1.78309,-12.68386 z"
       id="text72"
       style="fill:url(#gradient-4-4);paint-order:stroke"
       transform="matrix(1.593602,0,0,1.528469,-195.5557,-87.053819)"
       aria-label="NEXOR​" />
    <path
       d="m 229.32638,118.66261 q 0.52128,0 1.10269,0.0401 0.60147,0.0201 1.20294,0.10025 0.60146,0.0602 1.18288,0.14034 0.60147,0.0802 1.10269,0.18044 l -0.76186,1.06259 q -1.10269,-0.0401 -1.98484,-0.0601 -0.8621,-0.0401 -1.32322,-0.0401 -1.00245,0 -1.64401,0.14034 -0.64157,0.12029 -1.0225,0.50122 -0.38093,0.38093 -0.62151,1.12274 -0.22054,0.74181 -0.40098,1.96479 -0.20049,1.46357 -0.18044,2.24548 0.0401,0.78191 0.36088,1.08264 0.34083,0.28069 1.00244,0.28069 0.72176,0 1.42347,-0.30074 0.72176,-0.32078 1.48362,-0.92225 0.76186,-0.62151 1.58387,-1.48362 l 0.34083,0.82201 q -0.50123,0.9022 -1.30318,1.66406 -0.78191,0.76186 -1.7643,1.24303 -0.9824,0.46112 -2.10514,0.46112 -1.16284,0 -1.82445,-0.48117 -0.64156,-0.50122 -0.822,-1.64401 -0.18044,-1.16284 0.10024,-3.10758 0.24059,-1.64401 0.64157,-2.64645 0.40097,-1.00245 0.98239,-1.50367 0.60147,-0.52127 1.40342,-0.68166 0.80196,-0.18044 1.8445,-0.18044 z m 2.867,0.46112 h 1.7242 l -1.34327,9.54328 h -1.34328 l 0.14034,-2.30563 -0.18044,-0.16039 z m 14.74816,0 h 1.72421 l -1.36333,9.36284 q -0.12029,0.98239 -0.50122,1.78435 -0.38093,0.80196 -1.06259,1.38337 -0.66162,0.58142 -1.66406,0.88216 -0.9824,0.32078 -2.32567,0.36088 -0.26064,0 -0.86211,-0.02 -0.58141,0 -1.26308,-0.0802 -0.66161,-0.0802 -1.20293,-0.22054 l 0.18044,-1.14278 q 0.42103,0.02 0.8621,0.02 0.44108,0.02 1.00245,0.02 0.56137,0 1.30318,-0.02 1.42347,-0.0401 2.48606,-0.62151 1.06259,-0.58142 1.32323,-2.00489 0.16039,-0.70171 0.30073,-1.34328 0.16039,-0.64156 0.50122,-1.18288 l -0.46112,-0.20049 z m -3.08753,-0.46112 q 0.76186,0 1.60391,0.0601 0.84206,0.0601 1.66406,0.16039 0.82201,0.10025 1.50367,0.24059 l -0.76186,1.06259 q -1.10269,-0.0401 -1.98484,-0.0601 -0.8621,-0.0401 -1.38337,-0.0401 -0.9824,0 -1.60392,0.14034 -0.62151,0.12029 -1.00244,0.50122 -0.38093,0.38093 -0.60147,1.12274 -0.22054,0.74181 -0.40098,1.96479 -0.22053,1.44352 -0.20049,2.22543 0.0401,0.78191 0.36089,1.08264 0.34083,0.30074 1.00244,0.30074 0.72176,0 1.42347,-0.30074 0.72176,-0.32078 1.46357,-0.92225 0.76186,-0.60146 1.60391,-1.48362 l 0.36088,0.78191 q -0.50122,0.9022 -1.30317,1.68411 -0.80196,0.76186 -1.80441,1.24303 -1.00244,0.48117 -2.14523,0.48117 -1.04254,0 -1.70415,-0.46112 -0.66162,-0.48117 -0.88216,-1.62396 -0.20049,-1.14279 0.10025,-3.14768 0.24059,-1.66406 0.64156,-2.64645 0.40098,-1.00245 0.9824,-1.50367 0.58142,-0.52127 1.34328,-0.68166 0.76185,-0.18044 1.7242,-0.18044 z m 12.38241,0.24058 -0.16039,2.68656 0.1203,0.30073 -0.9423,6.77653 h -1.70416 l 1.38338,-9.76382 z m 4.85184,-0.24058 -0.42103,1.60391 h -0.50122 q -0.88215,0 -1.8445,0.58142 -0.9423,0.56137 -2.32567,1.60391 l -0.0802,-1.10269 q 1.26308,-1.28313 2.44597,-1.98484 1.18288,-0.70171 2.22543,-0.70171 z m 8.91393,0 q 1.64401,0 2.60636,0.52127 0.96235,0.50122 1.28313,1.64401 0.34083,1.14278 0.0601,3.04743 -0.26064,1.8445 -0.86211,2.96724 -0.58142,1.10269 -1.64401,1.60391 -1.04254,0.48117 -2.68655,0.48117 -1.62396,0 -2.60636,-0.50122 -0.96234,-0.52127 -1.30318,-1.66406 -0.34083,-1.14279 -0.0802,-3.02738 0.26063,-1.8445 0.84205,-2.94719 0.60147,-1.12274 1.66406,-1.62396 1.06259,-0.50122 2.72665,-0.50122 z m 0,1.44352 q -1.08264,0 -1.7643,0.32078 -0.68166,0.32078 -1.08264,1.14279 -0.38093,0.80195 -0.60147,2.30562 -0.20049,1.38337 -0.0802,2.18533 0.14034,0.78191 0.68166,1.10269 0.56137,0.32078 1.60391,0.32078 1.10269,0 1.78435,-0.34083 0.68166,-0.34083 1.06259,-1.16284 0.40098,-0.822 0.60147,-2.24547 0.20049,-1.42347 0.0602,-2.20538 -0.1203,-0.78191 -0.68166,-1.10269 -0.54133,-0.32078 -1.58387,-0.32078 z"
       id="text73"
       style="fill:url(#gradient-3-4);stroke-width:0.727px"
       transform="matrix(1.090923,0,0,1.30499,-87.118226,16.270035)"
       aria-label="agro" />
  </g>
</svg>
